<svg xmlns="http://www.w3.org/2000/svg" viewBox="0 0 233.38 289.26"><defs><style>.cls-1{font-size:68.3px;font-family:MyriadPro-Semibold, Myriad Pro;font-weight:600;}.cls-1,.cls-3{fill:#021887;}.cls-2{fill:#8feaff;}</style></defs><title>logo full</title><g id="Layer_2" data-name="Layer 2"><g id="Layer_1-2" data-name="Layer 1"><text class="cls-1" transform="translate(0 272.18)">Caribou</text><circle class="cls-2" cx="130.35" cy="132.95" r="55.37"/><path d="M106.48,90l-.18-.2.11.1Z"/><path class="cls-3" d="M118.68,164c-1.78-1.07-3.42-2-5-3-9.17-5.87-17.44-12.55-21.09-23.42-5-14.76,3-31.51,21.49-29.41,4,.45,8,1.5,12,1.58,2.66.06,5.88-.42,7.92-1.92,4.54-3.35,8.49-7.5,13.4-12-29-14-59.68-21.54-81.18-46.16C66,55.06,65,61.24,67.65,64.76c4,5.39,10.53,9,16.11,13.41a59,59,0,0,0-33.05,35.27c-6.31,17.68-2.69,33.72,9.46,47.91-.83-2.46-1.71-4.9-2.49-7.37-9.79-31.42,3-58.36,33.57-70.73,1.74-.71,4-2,5.36-1.44,11.06,4.55,22,9.47,33,14.33-3,6.51-7.8,5.33-12.23,4.87-12.31-1.28-24.41-.43-35.65,5a30.08,30.08,0,0,0-8.43,48.71C82.4,164,104.77,168.58,118.68,164Z"/><path class="cls-3" d="M130.35,83.2C111,66.55,100.71,45.56,100.05,19.76l-2.49.49V52.53C84.06,36.77,80.77,19.26,83.78,0c-7.48,14.75-10,29.89-2,45C92.24,64.79,111,74.39,130.35,83.2Z"/><path class="cls-3" d="M76.09,166.39c.74.52,1.47,1.06,2.21,1.56a69.13,69.13,0,0,0,14.93,7.74,62,62,0,0,0,16.32,3.43,168.16,168.16,0,0,0,18.25,0A38.35,38.35,0,0,1,110,187a40.08,40.08,0,0,1-20.14-1.9,42.09,42.09,0,0,1-13.32-8c14,17,37.88,20.68,58.64,12.59,26.86-10.45,30-38.56,30-38.56C117.79,182.59,89.34,174.59,76.09,166.39Z"/></g></g></svg>