<svg xmlns="http://www.w3.org/2000/svg" viewBox="0 0 138.06 193.82"><defs><style>.cls-1{fill:#8feaff;}.cls-2{fill:#021887;}</style></defs><title>logo</title><g id="Layer_2" data-name="Layer 2"><g id="Layer_1-2" data-name="Layer 1"><circle class="cls-1" cx="82.69" cy="132.95" r="55.37"/><path d="M58.83,90l-.18-.2.11.1Z"/><path class="cls-2" d="M71,164c-1.78-1.07-3.41-2-5-3-9.18-5.87-17.45-12.55-21.09-23.42-4.95-14.76,3-31.51,21.48-29.41,4,.45,8,1.5,12,1.58,2.67.06,5.89-.42,7.92-1.92,4.54-3.35,8.5-7.5,13.4-12-29-14-59.68-21.54-81.18-46.16-.27,5.4-1.21,11.58,1.42,15.1,4,5.39,10.52,9,16.1,13.41A59.06,59.06,0,0,0,3.05,113.44c-6.31,17.68-2.69,33.72,9.46,47.91-.83-2.46-1.71-4.9-2.48-7.37-9.8-31.42,3-58.36,33.56-70.73,1.74-.71,4-2,5.36-1.44,11.06,4.55,22,9.47,33,14.33-3,6.51-7.8,5.33-12.22,4.87-12.31-1.28-24.41-.43-35.66,5a30.08,30.08,0,0,0-8.43,48.71C34.74,164,57.11,168.58,71,164Z"/><path class="cls-2" d="M82.69,83.2C63.3,66.55,53.06,45.56,52.39,19.76l-2.49.49V52.53C36.41,36.77,33.12,19.26,36.12,0c-7.48,14.75-10,29.89-2,45C44.58,64.79,63.35,74.39,82.69,83.2Z"/><path class="cls-2" d="M28.44,166.39c.73.52,1.46,1.06,2.21,1.56a68.83,68.83,0,0,0,14.92,7.74,62,62,0,0,0,16.32,3.43,168.17,168.17,0,0,0,18.25,0A38.31,38.31,0,0,1,62.29,187a40,40,0,0,1-20.13-1.9,42,42,0,0,1-13.32-8c14,17,37.88,20.68,58.64,12.59,26.85-10.45,30-38.56,30-38.56C70.13,182.59,41.69,174.59,28.44,166.39Z"/></g></g></svg>